<?xml version="1.0" encoding="UTF-8" standalone="no"?>
<svg
   xmlns:dc="http://purl.org/dc/elements/1.1/"
   xmlns:cc="http://creativecommons.org/ns#"
   xmlns:rdf="http://www.w3.org/1999/02/22-rdf-syntax-ns#"
   xmlns:svg="http://www.w3.org/2000/svg"
   xmlns="http://www.w3.org/2000/svg"
   xmlns:sodipodi="http://sodipodi.sourceforge.net/DTD/sodipodi-0.dtd"
   xmlns:inkscape="http://www.inkscape.org/namespaces/inkscape"
   width="51.064583mm"
   height="15.875mm"
   viewBox="0 0 51.064583 15.875"
   version="1.1"
   id="svg6186"
   inkscape:version="1.0.1 (3bc2e813f5, 2020-09-07)"
   sodipodi:docname="inicio.svg">
  <defs
     id="defs6180" />
  <sodipodi:namedview
     id="base"
     pagecolor="#ffffff"
     bordercolor="#666666"
     borderopacity="1.0"
     inkscape:pageopacity="0.0"
     inkscape:pageshadow="2"
     inkscape:zoom="1.1867187"
     inkscape:cx="-99.793309"
     inkscape:cy="62.495059"
     inkscape:document-units="mm"
     inkscape:current-layer="text3685"
     showgrid="false"
     fit-margin-top="0"
     fit-margin-left="0"
     fit-margin-right="0"
     fit-margin-bottom="0"
     inkscape:window-width="1920"
     inkscape:window-height="1009"
     inkscape:window-x="-8"
     inkscape:window-y="-8"
     inkscape:window-maximized="1"
     inkscape:document-rotation="0"
     inkscape:snap-text-baseline="true" />
  <metadata
     id="metadata6183">
    <rdf:RDF>
      <cc:Work
         rdf:about="">
        <dc:format>image/svg+xml</dc:format>
        <dc:type
           rdf:resource="http://purl.org/dc/dcmitype/StillImage" />
        <dc:title></dc:title>
      </cc:Work>
    </rdf:RDF>
  </metadata>
  <g
     inkscape:label="Layer 1"
     inkscape:groupmode="layer"
     id="layer1"
     transform="translate(-125.63031,-149.49348)">
    <g
       id="g3746"
       transform="translate(-134.39161,121.29301)">
      <g
         id="g3681"
         transform="matrix(0.96268958,0,0,0.96572718,344.68657,-80.497576)">
        <path
           d="m -35.966964,128.99404 h -50.914299 c -0.58808,0 -1.064683,-0.4766 -1.064683,-1.06468 v -14.30902 c 0,-0.58808 0.476603,-1.06469 1.064683,-1.06469 h 50.914299 c 0.588081,0 1.064683,0.47661 1.064683,1.06469 v 14.30902 c 0,0.58808 -0.476602,1.06468 -1.064683,1.06468"
           style="fill:#097896;fill-opacity:1;fill-rule:nonzero;stroke:none;stroke-width:0.35277778"
           id="path3679"
           inkscape:connector-curvature="0" />
      </g>
      <g
         aria-label="Início"
         style="font-style:normal;font-weight:normal;font-size:7.76111126px;line-height:1.25;font-family:sans-serif;letter-spacing:0px;word-spacing:0px;fill:#ffffff;fill-opacity:1;stroke:none;stroke-width:0.26458332"
         id="text3685">
        <g
           aria-label="Início"
           id="text44281"
           style="font-style:normal;font-weight:normal;font-size:10.5833px;line-height:1.25;font-family:sans-serif;fill:#ffffff;fill-opacity:1;stroke:none;stroke-width:0.0700043">
          <path
             d="m 272.80052,32.592982 h 0.75965 v 7.601579 h -0.75965 z"
             style="font-style:normal;font-variant:normal;font-weight:normal;font-stretch:normal;font-family:'Century Gothic';-inkscape-font-specification:'Century Gothic';fill:#ffffff;stroke-width:0.0700043"
             id="path44283" />
          <path
             d="m 275.1828,34.572183 h 0.72347 v 1.007687 q 0.43408,-0.578774 0.96118,-0.862993 0.52709,-0.289387 1.14721,-0.289387 0.63045,0 1.11621,0.320392 0.49092,0.320393 0.72346,0.862994 0.23255,0.542601 0.23255,1.689814 v 2.893871 h -0.7183 v -2.681998 q 0,-0.971514 -0.0827,-1.297075 -0.12919,-0.558103 -0.48576,-0.837155 -0.35657,-0.28422 -0.93017,-0.28422 -0.65629,0 -1.17822,0.434081 -0.51677,0.434081 -0.68213,1.074866 -0.10335,0.418578 -0.10335,1.529618 v 2.061883 h -0.72347 z"
             style="font-style:normal;font-variant:normal;font-weight:normal;font-stretch:normal;font-family:'Century Gothic';-inkscape-font-specification:'Century Gothic';fill:#ffffff;stroke-width:0.0700043"
             id="path44285" />
          <path
             d="m 281.52865,34.572183 h 0.72863 v 5.622378 h -0.72863 z m 0.71313,-2.63549 h 1.11104 l -1.52445,1.591629 h -0.71313 z"
             style="font-style:normal;font-variant:normal;font-weight:normal;font-stretch:normal;font-family:'Century Gothic';-inkscape-font-specification:'Century Gothic';fill:#ffffff;stroke-width:0.0700043"
             id="path44287" />
          <path
             d="m 289.21291,35.740067 -0.57361,0.356566 q -0.74414,-0.987017 -2.03088,-0.987017 -1.02835,0 -1.71048,0.661456 -0.67696,0.661457 -0.67696,1.607132 0,0.614948 0.31006,1.157549 0.31522,0.542601 0.85782,0.842323 0.54777,0.299722 1.22473,0.299722 1.24023,0 2.02571,-0.987016 l 0.57361,0.377236 q -0.40308,0.604613 -1.0852,0.940508 -0.67696,0.330729 -1.54513,0.330729 -1.33324,0 -2.21174,-0.847491 -0.8785,-0.847491 -0.8785,-2.061883 0,-0.816485 0.40825,-1.514115 0.41341,-0.702797 1.13171,-1.095537 0.7183,-0.392739 1.60713,-0.392739 0.5581,0 1.07487,0.170531 0.52193,0.170532 0.88366,0.444416 0.36173,0.273884 0.61495,0.69763 z"
             style="font-style:normal;font-variant:normal;font-weight:normal;font-stretch:normal;font-family:'Century Gothic';-inkscape-font-specification:'Century Gothic';fill:#ffffff;stroke-width:0.0700043"
             id="path44289" />
          <path
             d="m 290.85621,32.257086 q 0.24805,0 0.42375,0.1757 0.1757,0.175699 0.1757,0.423745 0,0.242878 -0.1757,0.418578 -0.1757,0.175699 -0.42375,0.175699 -0.24288,0 -0.41858,-0.175699 -0.1757,-0.1757 -0.1757,-0.418578 0,-0.248046 0.1757,-0.423745 0.1757,-0.1757 0.41858,-0.1757 z m -0.36173,2.315097 h 0.72863 v 5.622378 h -0.72863 z"
             style="font-style:normal;font-variant:normal;font-weight:normal;font-stretch:normal;font-family:'Century Gothic';-inkscape-font-specification:'Century Gothic';fill:#ffffff;stroke-width:0.0700043"
             id="path44291" />
          <path
             d="m 295.38305,34.42749 q 1.29708,0 2.14974,0.940508 0.77514,0.857826 0.77514,2.030877 0,1.178219 -0.82165,2.061883 -0.81649,0.878497 -2.10323,0.878497 -1.2919,0 -2.11356,-0.878497 -0.81648,-0.883664 -0.81648,-2.061883 0,-1.167884 0.77514,-2.02571 0.85266,-0.945675 2.1549,-0.945675 z m 0,0.707964 q -0.89916,0 -1.54512,0.666624 -0.64595,0.666624 -0.64595,1.6123 0,0.60978 0.29455,1.136878 0.29456,0.527098 0.79582,0.816485 0.50126,0.284219 1.1007,0.284219 0.59945,0 1.10071,-0.284219 0.50126,-0.289387 0.79581,-0.816485 0.29456,-0.527098 0.29456,-1.136878 0,-0.945676 -0.65112,-1.6123 -0.64596,-0.666624 -1.53996,-0.666624 z"
             style="font-style:normal;font-variant:normal;font-weight:normal;font-stretch:normal;font-family:'Century Gothic';-inkscape-font-specification:'Century Gothic';fill:#ffffff;stroke-width:0.0700043"
             id="path44293" />
        </g>
      </g>
    </g>
  </g>
</svg>
